<svg width="79" height="44" viewBox="0 0 79 44" fill="none" xmlns="http://www.w3.org/2000/svg">
<path d="M0 0H79V44H0V0Z" fill="#F8F3F8"/>
<path fill-rule="evenodd" clip-rule="evenodd" d="M77.3542 1.69231H1.64583V42.3077H77.3542V1.69231ZM0 0V44H79V0H0Z" fill="#311067"/>
<path d="M59.5824 37.2308V31.3009H73.4864V29.1483L60.6489 8.88123H57.3309V29.3108H53.0253V31.3009H57.3309V37.2308H59.5824ZM71.3534 29.3108H59.5824V10.9526H59.7009L71.3534 29.3108Z" fill="#311067"/>
<path d="M38.3073 10.9932V37.2308H40.6773V10.9932H50.1178V8.88123H28.8668V10.9932H38.3073Z" fill="#311067"/>
<path d="M9.76421 23.9089H21.8512V37.2308H24.2212V8.88123H21.8512V21.7969H9.76421V8.88123H7.39421V37.2308H9.76421V23.9089Z" fill="#311067"/>
</svg>
